<svg viewBox="0 0 286 301" xmlns="http://www.w3.org/2000/svg">
<path fill-rule="evenodd" clip-rule="evenodd" d="M227.217 1.39702C226.355 2.37602 225.967 6.81803 225.967 15.704C225.967 26.919 225.73 28.806 224.138 30.246C223.132 31.156 221.474 31.901 220.453 31.901C219.432 31.901 214.688 28.076 209.911 23.401C205.133 18.726 200.582 14.901 199.796 14.901C197.785 14.901 195.967 16.955 195.967 19.227C195.967 21.247 227.465 53.901 229.413 53.901C230.965 53.901 263.967 20.633 263.967 19.069C263.967 17.428 261.507 14.901 259.91 14.901C259.25 14.901 254.801 18.726 250.023 23.401C241.033 32.198 238.576 33.336 235.622 30.072C234.272 28.58 233.967 25.99 233.967 16.007C233.967 9.27603 233.501 2.89902 232.932 1.83502C231.724 -0.421977 229.002 -0.630977 227.217 1.39702ZM185.417 57.294C178.917 60.154 174.938 67.939 176.452 74.833C177.675 80.4 178.94 80.901 191.773 80.901H203.437L215.202 69.167C221.673 62.713 226.967 57.119 226.967 56.737C226.967 56.355 218.304 56.022 207.717 55.997C193.712 55.964 187.636 56.318 185.417 57.294ZM101.967 71.485C98.6766 73.752 43.4646 128.574 40.7876 132.231L38.7166 135.061L42.5666 139.004C48.2256 144.799 55.0906 147.901 62.2556 147.901H68.1526L64.1946 152.651C56.2986 162.124 53.3356 172.095 55.0996 183.248C56.5286 192.278 59.2336 196.408 72.5896 209.948C79.3976 216.849 84.9666 222.999 84.9666 223.615C84.9666 224.359 80.9756 224.845 73.0556 225.067C61.5086 225.391 61.0276 225.494 57.3056 228.452C53.1176 231.78 48.4106 240.011 49.3286 242.402C49.8246 243.696 54.8316 243.901 85.8536 243.901C105.626 243.901 122.532 243.621 123.422 243.28C125.418 242.514 127.967 237.762 127.967 234.806C127.967 233.37 124.509 229.097 117.967 222.449C112.467 216.86 107.967 211.975 107.967 211.594C107.967 211.213 111.117 210.901 114.967 210.901C118.817 210.901 121.967 210.522 121.967 210.06C121.967 209.597 119.081 206.447 115.554 203.06L109.14 196.901H100.728C93.2276 196.901 92.0796 196.65 90.1406 194.587C88.9446 193.314 87.9666 191.964 87.9666 191.587C87.9666 191.209 93.4677 190.901 100.192 190.901H112.416L137.442 215.851C153.729 232.089 163.765 241.342 166.185 242.351C168.828 243.453 173.307 243.901 181.675 243.901H193.447L174.972 225.406L156.497 206.911L165.622 197.656C170.641 192.566 175.246 187.418 175.857 186.217C179.077 179.88 175.269 172.987 167.997 171.99L163.701 171.401L171.584 163.273C175.92 158.803 181.267 154.246 183.467 153.147C191.034 149.364 196.736 148.901 235.766 148.897C270.888 148.894 273.678 148.765 276.547 147.015C280.013 144.902 282.957 139.524 282.987 135.25C282.998 133.683 281.562 127.755 279.796 122.076L276.585 111.751L279.66 109.344C285.877 104.479 287.775 93.652 283.68 86.421C277.712 75.883 261.006 75.015 253.983 84.878L251.831 87.901L197.149 87.913C137.803 87.926 137.39 87.959 126.098 93.592C122.045 95.614 115.895 100.885 104.155 112.401C95.1826 121.201 87.6206 128.613 87.3496 128.872C86.5956 129.594 84.9996 126.639 84.9816 124.489C84.9726 123.343 91.9256 115.536 102.349 104.989C115.027 92.16 119.913 86.55 120.406 84.255C121.194 80.58 119.272 75.318 116.115 72.505C113.112 69.83 105.197 69.259 101.967 71.485ZM31.7166 75.981C30.1886 76.871 29.9666 78.688 29.9666 90.296C29.9666 101.906 29.7346 103.801 28.1376 105.246C24.9276 108.151 22.6366 107.124 14.9416 99.331C6.07764 90.355 4.68164 89.448 1.96664 90.901C-2.32936 93.2 -0.503357 95.954 16.7276 113.162L33.4876 129.901L50.7276 112.641C60.2086 103.147 67.9666 94.613 67.9666 93.676C67.9666 91.325 64.4496 89.564 62.2166 90.796C61.2536 91.327 57.1026 95.168 52.9916 99.331C45.1696 107.252 42.5946 108.358 39.6216 105.072C38.2656 103.574 37.9666 100.965 37.9666 90.644C37.9666 80.523 37.6576 77.735 36.3956 76.472C34.5736 74.651 34.0876 74.6 31.7166 75.981ZM234.542 106.392C248.366 114.493 245.885 134.813 230.45 139.907C219.3 143.586 206.967 134.457 206.967 122.523C206.967 108.096 222.222 99.172 234.542 106.392ZM213.467 227.901L196.489 244.901L213.467 261.901C222.805 271.251 231.147 278.901 232.006 278.901C233.979 278.901 235.967 276.952 235.967 275.016C235.967 274.199 232.142 269.622 227.467 264.845C222.792 260.067 218.967 255.475 218.967 254.641C218.967 253.806 219.755 252.176 220.717 251.02C222.314 249.101 223.642 248.894 235.86 248.659C247.353 248.438 249.409 248.153 250.355 246.651C251.157 245.376 251.157 244.426 250.355 243.151C249.409 241.649 247.353 241.364 235.86 241.143C223.642 240.908 222.314 240.701 220.717 238.782C219.755 237.626 218.967 235.996 218.967 235.161C218.967 234.327 222.792 229.735 227.467 224.957C232.142 220.18 235.967 215.603 235.967 214.786C235.967 212.85 233.979 210.901 232.006 210.901C231.147 210.901 222.805 218.551 213.467 227.901ZM49.6506 251.55C49.2746 251.926 48.9666 262.951 48.9666 276.049V299.863L51.4796 300.494C56.2116 301.681 56.9666 299.802 56.9666 286.835C56.9666 275.754 57.1056 274.917 59.1896 273.458C60.4116 272.602 62.0496 271.901 62.8296 271.901C63.6086 271.901 68.5976 276.176 73.9166 281.401C79.2346 286.626 84.0897 290.901 84.7047 290.901C86.1277 290.901 88.9666 288.096 88.9666 286.689C88.9666 286.102 84.6916 281.27 79.4666 275.951C73.7446 270.128 69.9666 265.472 69.9666 264.247C69.9666 259.994 72.7606 258.987 85.4016 258.685C95.4066 258.445 97.4246 258.128 98.3546 256.651C99.1566 255.376 99.1566 254.426 98.3536 253.151C97.3616 251.579 94.8706 251.374 73.7926 251.133C60.8906 250.986 50.0276 251.174 49.6506 251.55Z" />
</svg>
